<?xml version="1.0" encoding="utf-8"?>
<!-- Generator: Adobe Illustrator 16.0.0, SVG Export Plug-In . SVG Version: 6.00 Build 0)  -->
<!DOCTYPE svg PUBLIC "-//W3C//DTD SVG 1.1//EN" "http://www.w3.org/Graphics/SVG/1.1/DTD/svg11.dtd" [
	<!ENTITY ns_flows "http://ns.adobe.com/Flows/1.0/">
	<!ENTITY ns_extend "http://ns.adobe.com/Extensibility/1.0/">
	<!ENTITY ns_ai "http://ns.adobe.com/AdobeIllustrator/10.0/">
	<!ENTITY ns_graphs "http://ns.adobe.com/Graphs/1.0/">
]>
<svg version="1.1" id="Layer_3" xmlns:x="&ns_extend;" xmlns:i="&ns_ai;" xmlns:graph="&ns_graphs;"
	 xmlns="http://www.w3.org/2000/svg" xmlns:xlink="http://www.w3.org/1999/xlink" xmlns:a="http://ns.adobe.com/AdobeSVGViewerExtensions/3.0/"
	 x="0px" y="0px" width="300px" height="100px" viewBox="0 0 300 100" enable-background="new 0 0 300 100" xml:space="preserve">
<g>
	<g>
		<linearGradient id="SVGID_1_" gradientUnits="userSpaceOnUse" x1="217.7715" y1="-47.7178" x2="137.8637" y2="73.1688">
			<stop  offset="0" style="stop-color:#3A92CF;stop-opacity:0"/>
			<stop  offset="1" style="stop-color:#3A92CF"/>
			<a:midPointStop  offset="0" style="stop-color:#3A92CF;stop-opacity:0"/>
			<a:midPointStop  offset="0.5" style="stop-color:#3A92CF;stop-opacity:0"/>
			<a:midPointStop  offset="1" style="stop-color:#3A92CF"/>
		</linearGradient>
		<path fill-rule="evenodd" clip-rule="evenodd" fill="url(#SVGID_1_)" d="M141.047,42.162L141.047,42.162L141.047,42.162z
			 M192.69,23.817c-0.257-0.121-0.514-0.236-0.772-0.346C192.177,23.582,192.434,23.696,192.69,23.817L192.69,23.817z
			 M191.805,23.422c-0.211-0.088-0.421-0.174-0.634-0.256C191.384,23.249,191.594,23.334,191.805,23.422L191.805,23.422z
			 M190.887,23.056c-2.998-1.137-6.24-1.738-9.608-1.895l0.268,0.013c-8.968-2.195-17.874-0.614-26.162,2.512
			c-0.312-0.282-0.644-0.55-0.989-0.805c10.87-4.458,22.91-6.506,34.813-0.917c0.73,0.343,1.314,0.617,1.512,0.858
			C190.811,22.896,190.864,22.975,190.887,23.056L190.887,23.056z M181.007,21.149c-0.226-0.009-0.447-0.016-0.674-0.021
			C180.56,21.133,180.781,21.141,181.007,21.149L181.007,21.149z M180.045,21.123c-0.219-0.003-0.438-0.005-0.657-0.005
			C179.606,21.118,179.826,21.12,180.045,21.123L180.045,21.123z M179.079,21.121c-0.212,0.001-0.428,0.005-0.643,0.011
			C178.651,21.125,178.867,21.122,179.079,21.121L179.079,21.121z M178.104,21.141c-0.207,0.007-0.413,0.014-0.618,0.023
			C177.691,21.154,177.897,21.147,178.104,21.141L178.104,21.141z M177.135,21.182c-0.207,0.012-0.418,0.024-0.628,0.038
			C176.717,21.206,176.928,21.194,177.135,21.182L177.135,21.182z M176.162,21.245c-0.203,0.017-0.41,0.033-0.614,0.051
			C175.752,21.278,175.959,21.262,176.162,21.245L176.162,21.245z M175.167,21.332c-0.192,0.019-0.383,0.04-0.575,0.06
			c-6.343-0.4-12.586,0.852-18.533,2.948c0.296,0.314,0.57,0.641,0.812,0.977c2.569-0.822,5.068-1.583,7.676-1.845l-0.002,0.001
			C168.06,22.42,171.641,21.675,175.167,21.332L175.167,21.332z M163.86,23.683c-0.617,0.129-1.958,0.46-6.499,2.398l-0.238,0.103
			C159.312,25.239,161.571,24.396,163.86,23.683L163.86,23.683z M165.188,30.409c6.759-0.888,13.728-0.222,20.651,3.029l0.311,0.146
			c-0.979,0.284-2.08,0.514-3.117,0.635c-4.818-1.949-9.649-2.692-14.401-2.577c0.364,0.229,0.71,0.492,1.033,0.81
			c0.755,0.678,1.362,1.417,1.809,2.229c2.289,0.227,4.588,0.675,6.886,1.381c0.264,0.217,0.768,0.405,1.597,0.523
			c3.905,0.388,10.782,1.637,15.13-0.4c0.028-0.013,0.154,0.328,0.269,0.629c-3.726,2.821-9.449,2.321-13.318,1.78
			c0.425,0.425,0.81,0.893,1.156,1.395c4.04,0.422,9.184,0.375,12.322-2.781c0.02,0.04,0.036,0.062,0.041,0.059
			c10.706-4.278,22.895-6.425,34.561-0.947c0.731,0.343,1.312,0.619,1.512,0.86c0.492,0.398-0.083,0.925-1.165,1.41
			c-0.278-0.199-0.757-0.425-1.324-0.69c-11.247-5.281-22.617-3.745-33.008,0.204c1.458-0.498,2.998-0.771,4.596-0.771
			c0.196,0,0.388,0.003,0.572,0.009c5.448-1.473,11.094-2.111,16.798-1.337v-0.434h1.892c1.003,0,2.541,0.845,3.756,1.679
			c1.558,0.481,3.119,1.08,4.675,1.812l0.141,0.065c1.348-0.431,2.733-0.695,3.865-0.695c2.847,0,4.898,0.97,6.202,2.633
			c0.52-0.361,1.005-0.782,1.443-1.271c0.024-0.026,0.045-0.051,0.066-0.077l-0.051,0.132c2.601,0.189,5.216,0.657,7.834,1.461
			c0.262,0.22,0.766,0.408,1.602,0.528c3.241,0.322,12.889,2.753,17.536-2.416c3.511-3.9-0.569-8.366-4.801-10.353
			c-2.623-1.232-5.468-2.008-8.445-2.396c0.895-3.307-2.493-6.634-5.985-8.273c-14.786-6.942-36.615,0.573-49.525,10.446
			c-0.156-0.335-0.352-0.661-0.568-0.98c0.293-0.373,0.521-0.75,0.689-1.128c-0.074,0.093-0.15,0.186-0.234,0.277
			c-0.199,0.22-0.405,0.426-0.621,0.619c-0.187-0.253-0.39-0.498-0.605-0.738c0.056,0.062,0.111,0.125,0.166,0.187
			c0.746-0.436,1.435-0.977,2.038-1.647c3.51-3.901-0.568-8.367-4.804-10.354c-12.504-5.872-30.048-1.402-42.969,6.087
			c-9.986-4.398-23.024-2.417-34.364,2.34c0.472,1.03,0.734,2.233,0.734,3.606v0.017c5.683-1.75,11.607-2.649,17.605-2.023
			c0.198-0.562,0.374-1.106,0.514-1.614v-1.683h1.891c2.641,0,6.369,2.925,7.562,5.842c0.484,0.204,0.97,0.417,1.453,0.645
			c0.73,0.343,1.314,0.617,1.512,0.859c0.378,0.306,0.129,0.685-0.494,1.063c2.883-0.311,5.787-0.486,8.677-0.486
			c0.428,0,0.87,0.003,1.325,0.012c9.479-3.043,19.653-3.784,29.731,0.946c0.729,0.344,1.313,0.617,1.511,0.859
			c0.492,0.399-0.084,0.925-1.166,1.411c-0.278-0.201-0.757-0.425-1.322-0.691c-8.316-3.904-16.696-4.081-24.699-2.314
			C162.995,30.064,164.123,30.21,165.188,30.409L165.188,30.409z M139.33,43.064c0.568-0.304,1.14-0.605,1.717-0.902
			c0.238,0.016,0.48,0.03,0.724,0.041c0.452-0.531,0.927-1.036,1.426-1.508c-0.929,0.064-1.858,0.138-2.783,0.215
			C140.09,41.548,139.725,42.274,139.33,43.064L139.33,43.064z M194.884,38.59l-0.275,0.126l0.022-0.025L194.884,38.59
			L194.884,38.59z M191.092,40.917c-1.902,1.525-3.546,3.444-4.859,5.572l-0.895,0.434c-0.007-0.628-0.061-1.263-0.163-1.892
			c0.353-0.183,0.708-0.364,1.064-0.542c-0.378,0.044-0.76,0.077-1.143,0.1c-0.193-0.987-0.505-1.958-0.922-2.867
			C186.462,41.833,188.923,41.697,191.092,40.917L191.092,40.917z M211.223,40.135c-1.137-0.89-2.702-1.923-3.672-1.923h-1.366
			l-0.136,0.415c-0.495-0.261-0.974-0.484-1.468-0.669c4.398-0.797,8.903-0.973,13.438-0.239c-0.163,0.683-0.449,1.499-0.634,2.093
			l-0.286,0.926l-0.649-0.114c-0.001,0.001-0.002,0.001-0.002,0.001c-0.563-0.095-1.125-0.175-1.689-0.242
			c-0.681,0.353-1.357,0.712-2.025,1.074c-0.156-0.157-0.315-0.308-0.473-0.453c-0.177-0.162-0.41-0.365-0.68-0.584l0.332-0.266
			L211.223,40.135L211.223,40.135z M216.529,42.528l-0.786,2.424l-0.916,0.413c-0.039-0.628-0.227-1.227-0.509-1.789
			C215.048,43.219,215.786,42.869,216.529,42.528L216.529,42.528z M239.036,41.65l-0.081-0.128l0.139-0.148
			c0.081-0.092,0.162-0.186,0.237-0.279C239.246,41.28,239.151,41.466,239.036,41.65L239.036,41.65z M115.334,21.201
			c-1.174-1.501-2.943-2.794-4.738-3.637c-15.09-7.085-37.511,0.888-50.305,11.055c-0.03,0.355-0.155,0.717-0.396,1.072
			c-0.291,0.482-0.656,0.988-1.042,1.49c0.377-0.213,0.756-0.427,1.139-0.637c2.36-2.869,5.384-5.208,8.772-5.208
			c0.533,0,1.041,0.058,1.522,0.166c2.617-1.087,5.302-2.037,8.038-2.777c1.132-1.753,2.923-2.964,5.12-2.525
			c0.878,0.175,1.582,0.575,2.154,1.117c3.39-0.38,6.832-0.362,10.29,0.185l0.359-0.125c0.008-0.071,0.013-0.14,0.013-0.202v-4.567
			l3.04,3.042c0.36,0.171,0.751,0.327,1.134,0.488c2.696-0.665,5.435-1.073,8.283-1.185
			C111.332,18.952,113.684,19.709,115.334,21.201L115.334,21.201z M92.532,22.785c-0.816,0.336-1.628,0.687-2.435,1.048
			c-0.971-0.042-1.939-0.047-2.904-0.015c-0.155-0.381-0.329-0.753-0.528-1.103C88.608,22.592,90.565,22.607,92.532,22.785
			L92.532,22.785z M77.555,24.248c-0.133,0.347-0.244,0.702-0.331,1.058c-1.498,0.388-2.98,0.841-4.446,1.345
			c-0.289-0.214-0.595-0.408-0.918-0.575C73.729,25.378,75.63,24.761,77.555,24.248L77.555,24.248z M58.647,32.326
			c-0.423,0.236-0.843,0.474-1.261,0.711l-0.074,0.097c-0.311,0.406-0.619,0.813-0.924,1.223c0.487-0.278,0.976-0.554,1.47-0.831
			C58.108,33.126,58.372,32.725,58.647,32.326L58.647,32.326z M77.011,26.696c-0.008,0.142-0.012,0.283-0.012,0.422
			c0,0.71,0.12,1.373,0.337,1.986c-0.729,0.145-1.455,0.306-2.177,0.482c-0.361-0.736-0.814-1.417-1.356-2.007
			C74.865,27.252,75.934,26.957,77.011,26.696L77.011,26.696z M56.959,35.061l-0.599,0.336c-0.585,0.454-1.153,0.914-1.7,1.376
			c-0.488,0.711-0.963,1.431-1.421,2.164l-0.095,0.152c0.835-0.481,1.684-0.962,2.545-1.437c0.138-0.317,0.281-0.631,0.429-0.943
			C56.366,36.184,56.647,35.63,56.959,35.061L56.959,35.061z M104.966,31.171l0.316-0.65c0.813-0.054,1.627-0.08,2.443-0.08
			c0.962,0,2.056,0.037,3.092,0.2C108.94,31.159,106.897,31.256,104.966,31.171L104.966,31.171z M146.759,30.344
			c-0.378,0.045-0.753,0.092-1.128,0.141c0.036-0.211,0.061-0.428,0.074-0.653l0.105,0.049
			C146.172,30.05,146.498,30.204,146.759,30.344L146.759,30.344z M134.764,26.733c-0.157,0.401-0.315,0.8-0.474,1.192
			c-5.437-0.664-10.818-0.057-16.022,1.321l-0.108-0.938C123.54,26.796,129.122,26.084,134.764,26.733L134.764,26.733z
			 M117.848,28.396l-0.215,1.021l-0.119,0.034c0.065-0.334,0.12-0.668,0.162-1.003L117.848,28.396L117.848,28.396z M112.513,31.066
			c0.191,0.071,0.37,0.151,0.544,0.231c-2.5,2.229-6.095,2.711-9.416,2.615l0.562-1.167
			C107.043,32.844,110.102,32.529,112.513,31.066L112.513,31.066z M133.637,29.544l-0.13,0.326c-0.346,0.876-0.7,1.756-1.07,2.626
			c-1.238-0.183-2.476-0.301-3.708-0.355c-0.605-1.317-1.734-2.312-3.132-2.776C128.254,29.15,130.939,29.19,133.637,29.544
			L133.637,29.544z M120.658,30.049c-0.906,0.643-1.594,1.562-1.992,2.64l-0.248-2.151C119.16,30.358,119.908,30.195,120.658,30.049
			L120.658,30.049z M117.338,30.81l-0.54,2.56c-1.976,0.471-3.925,1.057-5.847,1.731l-0.005,0.007
			c-1.699,1.892-4.194,2.673-5.888,2.995h-2.334l0.167,0.373c-0.614,0.296-1.226,0.597-1.832,0.904
			c0.639-1.374,1.253-2.68,1.826-3.883c3.306,0.07,6.855-0.457,9.305-2.72c0.184-0.168,0.363-0.347,0.535-0.539l0.005-0.007
			c0.472-0.166,0.947-0.327,1.424-0.481c0.256,0.074,0.529,0.122,0.836,0.122c0.644,0,1.33-0.324,1.781-0.778l0.178-0.178
			L117.338,30.81L117.338,30.81z M217.354,26.994c6.103-1.066,12.399-0.928,18.698,1.185c-0.747,0.199-1.491,0.411-2.231,0.638
			C228.844,26.846,223.168,26.379,217.354,26.994L217.354,26.994z M239.628,32.622c5.755-0.318,11.632,0.585,17.476,3.329
			c0.73,0.343,1.312,0.616,1.512,0.859c0.492,0.399-0.084,0.925-1.166,1.41c-0.278-0.2-0.757-0.424-1.323-0.69
			c-5.148-2.417-10.321-3.404-15.415-3.388C240.423,33.615,240.056,33.106,239.628,32.622L239.628,32.622z M240.895,34.5
			c0.128,0.269,0.235,0.541,0.318,0.819c4.697,0.134,9.455,1.149,14.193,3.372l0.311,0.147c-0.979,0.284-2.079,0.512-3.116,0.633
			c-3.739-1.512-7.49-2.298-11.205-2.521c-0.065,0.861-0.411,1.736-1.113,2.598c0.695-0.852,1.037-1.729,1.105-2.598
			c0.042-0.55-0.024-1.096-0.182-1.631C241.127,35.042,241.021,34.77,240.895,34.5L240.895,34.5z M244.317,26.628
			c-0.808,0.086-1.622,0.193-2.435,0.32l-0.187-0.088c-14.953-7.021-30.123-1.993-42.917,4.73c0.052-0.357,0.054-0.714,0.015-1.067
			c12.995-6.974,28.549-12.438,43.879-5.242c0.729,0.344,1.312,0.617,1.51,0.86C244.363,26.289,244.4,26.454,244.317,26.628
			L244.317,26.628z M198.663,29.821c-0.076-0.292-0.182-0.581-0.312-0.866c13.404-7.5,29.837-14.012,46.02-6.415
			c0.729,0.344,1.312,0.616,1.51,0.859c0.492,0.4-0.082,0.926-1.165,1.41c-0.278-0.2-0.758-0.423-1.323-0.69
			C227.728,16.765,211.823,22.633,198.663,29.821L198.663,29.821z M196.948,26.887c-0.053-0.059-0.106-0.117-0.162-0.175
			C196.842,26.771,196.896,26.828,196.948,26.887L196.948,26.887z M196.608,26.53c-0.053-0.051-0.105-0.104-0.157-0.154
			C196.503,26.427,196.556,26.479,196.608,26.53L196.608,26.53z M196.174,26.116c-0.086-0.077-0.173-0.153-0.26-0.229
			C196.001,25.963,196.088,26.039,196.174,26.116L196.174,26.116z M195.019,25.185c-0.096-0.067-0.191-0.135-0.29-0.202
			C194.827,25.05,194.923,25.117,195.019,25.185L195.019,25.185z M194.511,24.836c-0.06-0.04-0.122-0.08-0.184-0.119
			C194.389,24.757,194.451,24.796,194.511,24.836L194.511,24.836z M193.763,24.378c-0.101-0.059-0.202-0.116-0.304-0.171
			C193.561,24.262,193.662,24.319,193.763,24.378L193.763,24.378z M198.707,31.97L198.707,31.97L198.707,31.97z M214.758,40.383
			c-0.921-0.11-1.84-0.184-2.759-0.224c0.92,0.04,1.842,0.111,2.765,0.221C214.764,40.381,214.762,40.383,214.758,40.383
			L214.758,40.383z M216.336,40.68l0.736,0.138l-0.123,0.39c-1.058,0.494-2.104,1.006-3.135,1.53
			c-0.136-0.196-0.28-0.384-0.433-0.567C214.354,41.661,215.339,41.164,216.336,40.68L216.336,40.68z M227.04,50.24
			c1.331-0.039,2.675-0.196,3.945-0.542c0.054-0.272,0.099-0.531,0.134-0.772C229.709,49.179,228.306,49.587,227.04,50.24
			L227.04,50.24z M266.082,41.003c0.082-0.092,0.16-0.186,0.235-0.279c-0.219,0.485-0.531,0.967-0.956,1.442
			c-4.65,5.167-14.297,2.737-17.537,2.415c-2.43-0.347-2.068-1.281-1.027-1.85c0.187,0.287,0.714,0.54,1.747,0.688
			C251.784,43.74,261.434,46.17,266.082,41.003L266.082,41.003z M263.849,44.284c-0.16,0.784-0.557,1.569-1.241,2.331
			c-4.65,5.167-14.297,2.737-17.538,2.416c-3.68-0.528-0.957-2.399,0.832-2.309c0.945,0.094,2.151-0.008,3.357-0.225
			C253.322,47.094,259.966,47.871,263.849,44.284L263.849,44.284z M227.408,39.541c-0.275,0.11-0.546,0.228-0.808,0.352l-0.13-0.172
			C226.783,39.668,227.099,39.608,227.408,39.541L227.408,39.541z M187.822,44.221c-0.064,0.015-0.129,0.028-0.194,0.042
			C187.693,44.249,187.758,44.235,187.822,44.221L187.822,44.221z M187.504,44.288c-0.065,0.014-0.134,0.027-0.199,0.039
			C187.37,44.314,187.438,44.301,187.504,44.288L187.504,44.288z M157.362,26.082L157.362,26.082L157.362,26.082z M193.763,24.378
			l0.012,0.005c0.07,0.041,0.141,0.082,0.209,0.124l0.003,0.001l0.004,0.001l0.075,0.045l0.003,0.002l0.059,0.036l0.028,0.018
			l0.058,0.037l0.075,0.047l0.016,0.01l0.023,0.013L193.763,24.378z"/>
	</g>
	<linearGradient id="SVGID_2_" gradientUnits="userSpaceOnUse" x1="139.0396" y1="-23.353" x2="134.4294" y2="55.2756">
		<stop  offset="0" style="stop-color:#005EA2;stop-opacity:0"/>
		<stop  offset="1" style="stop-color:#005EA2"/>
		<a:midPointStop  offset="0" style="stop-color:#005EA2;stop-opacity:0"/>
		<a:midPointStop  offset="0.5" style="stop-color:#005EA2;stop-opacity:0"/>
		<a:midPointStop  offset="1" style="stop-color:#005EA2"/>
	</linearGradient>
	<path fill-rule="evenodd" clip-rule="evenodd" fill="url(#SVGID_2_)" d="M229.78,59.254c-0.771-0.112-1.43-0.112-2.198-0.112
		c-3.082,0-10.457,0.442-10.457,6.165c0,2.092,1.54,4.184,5.393,4.184c4.513,0,9.246-3.303,11.446-7.704
		c3.852,0.328,6.714,1.102,7.594,1.102c0.33,0,0.551-0.221,0.551-0.662c0-0.329-0.109-0.769-7.154-2.201
		c1.321-2.751,3.522-8.253,3.522-12.986c0-3.853-1.541-6.715-6.053-6.715c-3.082,0-6.164,1.873-6.604,2.203
		c-0.661-2.752-5.173-5.063-5.833-5.063c0,0.992-4.935,15.507-9.057,28.292c-1.363,1.693-2.643,2.524-3.602,2.524
		c-0.988,0-1.538-1.21-1.538-3.631c0-5.284,3.52-11.228,5.942-15.629h0.108c0.55-1.211,1.101-2.201,1.101-3.411
		c0-2.532-4.952-5.504-5.392-5.504c-0.11,0.33-0.11,0.88-0.439,1.322c-1.652-0.992-3.192-2.202-6.386-2.202
		c-9.245,0-16.068,10.456-16.068,18.82c0,0.441,0.025,0.949,0.081,1.503c-0.576,0.596-1.316,1.267-2.282,2.018
		c-1.979,1.761-6.053,4.844-10.016,4.844c-3.962,0-6.933-3.302-6.933-7.814c0-6.714,6.494-13.757,9.574-13.757
		c0.882,0,1.321,0.551,1.321,1.762c0,0.66-0.109,1.431-0.33,2.2c-0.329,1.431-1.102,3.412-2.752,5.503
		c0.552,0.22,1.212,0.441,1.761,0.661c0.991,0.329,2.2,0.659,3.412,0.659c3.634,0,4.953-5.393,4.953-8.583
		c0-0.991-0.771-9.025-7.264-9.025c-0.661,0-1.32,0.11-1.981,0.33c-1.453,0.491-2.773,1.103-3.971,1.824
		c0.158-0.797,0.229-1.749,0.229-1.934c0-2.202-1.103-3.522-2.093-4.403c-0.549-0.55-1.209-0.881-1.98-1.21
		c-1.209-0.331-4.621-0.991-9.905-0.991c-3.852,0-8.476,0.33-13.866,1.211c0.771-1.321,1.21-2.202,1.21-3.413
		c0-2.97-4.731-5.723-6.054-5.723c0.111,0-2.531,7.265-4.292,11.117c-3.043,0.76-5.112,1.391-6.856,1.643
		c0.135-0.207,0.257-0.423,0.364-0.654c0.22-0.44,0.329-0.879,0.329-1.43c0-1.871-1.431-3.411-3.521-3.411s-3.631,1.651-3.631,3.962
		c0,0.127,0.003,0.253,0.011,0.378c-0.008,0.093-0.011,0.188-0.011,0.282c0,2.532,2.75,4.953,7.044,4.953
		c1.21,0,2.53-0.11,3.961-0.661c-2.744,6.435-5.895,14.983-6.725,21.171c-2.384,3.17-4.923,4.582-6.702,4.582
		c-1.651,0-1.872-1.1-1.872-2.749c0-4.733,3.192-10.236,5.724-14.969c0.769-0.991,1.21-1.981,1.21-2.862
		c0-4.402-5.613-5.392-5.283-5.943c-0.551,2.861-6.714,12.988-6.714,21.792c0,0.32,0.012,0.64,0.036,0.956
		c-1.927,2.604-3.761,3.774-5.099,3.774c-1.431,0-1.651-1.65-1.651-3.301c0-5.722,4.513-10.564,6.274-15.297
		c0.219-0.661,0.33-1.212,0.33-1.542c0-2.532-4.732-5.502-5.062-5.502c0.88,1.98-4.403,5.393-16.73,27.624
		c-0.108,0-0.108,0-0.108,0.111c0-7.814,12.876-34.119,14.967-38.411c0.066-0.196,0.127-0.392,0.183-0.587
		c1.193-0.115,2.443-0.183,3.78-0.183c5.613,0,6.273,1.431,7.264,1.431c0.11,0,0.329-0.111,0.44-0.22l0.109-0.111
		c0.221-0.99,0.331-1.761,0.331-2.531c0-4.733-3.742-6.273-7.154-6.273c-2.974,0.117-5.767,0.583-8.448,1.287
		c-1.084-0.519-1.993-0.832-2.118-0.957c0,0.441-0.111,1.021-0.276,1.655c-3.961,1.267-7.715,3.004-11.5,4.838
		c-0.439-1.761-1.101-5.172-3.302-5.614c-1.65-0.33-4.182,1.542-4.182,5.064c0,1.87,1.541,4.292,5.062,4.732
		c1.321,11.005-8.584,36.65-17.83,34.008c-1.65-0.222-3.522-5.172-3.743-6.717c5.394-4.73,11.887-15.625,11.887-25.201
		c0-2.751-1.65-6.713-5.503-6.713c-7.483,0-17.279,16.84-13.207,31.808c-0.881,1.209-3.301,4.511-6.493,4.511h-0.221
		c-0.55,0-4.073-1.649-3.522-8.254c0.88-13.206,11.557-24.213,12.987-26.634c0.33-0.44-0.55-1.32-1.431-1.32
		c-12.767,0-30.157,8.253-30.157,21.9c0,3.193,1.872,7.486,5.943,7.486c5.394,0,6.934-6.274,7.815-8.146
		c0.88-2.201-1.431-1.652-1.982-0.661c-0.88,1.87-4.512,4.292-4.843,3.083c-0.11-0.222-0.11-0.661-0.11-1.212
		c0-11.005,14.199-18.159,20.031-19.589C48.955,35.371,40.7,47.369,40.7,57.716c0,4.62,2.311,10.784,8.033,10.784
		c3.743,0,6.824-3.193,8.255-4.622c1.431,2.31,4.402,8.474,9.354,8.474c17.279,0,21.573-30.266,20.691-40.501
		c3.068-0.351,5.699-0.946,8.261-1.535c-3.231,8.271-11.233,29.161-11.233,38.405c0,3.854,1.873,5.063,3.632,5.063
		c1.651,0,3.19-1.101,3.743-2.862c0.879-3.303,5.283-11.667,8.473-17.5c-0.77,2.532-1.1,4.183-1.1,6.823
		c0,4.734,2.641,8.696,6.053,8.696c2.543,0,4.768-1.987,6.503-4.384c0.84,2.502,2.647,4.384,5.604,4.384
		c3.243,0,5.632-1.572,7.369-3.597c0.606,4.066,3.748,5.135,5.729,5.135c4.536-0.053,7.443-3.038,9.222-6.031
		c1.499,2.982,4.231,5.483,8.717,5.483c5.174,0,9.026-2.643,11.558-5.282c0.727-0.784,1.426-1.624,2.082-2.537
		c1.163,3.902,4.215,7.489,9.255,7.489c4.548,0,10.55-3.454,14.234-7.756c0.833,3.387,2.94,7.096,7.667,7.096
		c4.843,0,6.713-2.643,7.923-4.071c0.992,4.511,3.633,6.162,5.835,6.162c1.073,0,2.074-0.372,2.998-0.995
		c-2.125,6.699-3.81,12.351-4.1,14.422c-0.111,0,0.109,0.552,0.881,0.552c0.109,0,6.383-14.418,14.748-31.368
		c1.21-1.762,3.082-5.943,11.445-6.824c0.33,0,0.551,0.44,0.551,1.211C233.084,50.229,231.213,56.393,229.78,59.254L229.78,59.254
		L229.78,59.254z M81.972,26.458c0-0.991,0-1.321,0.88-1.761c1.1-0.331,1.1,3.412,0.88,3.412
		C82.853,27.997,81.972,27.448,81.972,26.458L81.972,26.458z M61.501,51.771c0-5.613,3.412-16.29,6.494-16.84
		c2.641,0.879-3.742,13.757-6.383,18.489C61.501,52.21,61.501,52.982,61.501,51.771L61.501,51.771z M168.882,41.063
		c-5.375,3.931-7.777,10.309-7.777,17.42c0,0.619,0.052,1.258,0.151,1.898c-0.671,0.749-1.721,1.756-3.452,3.056
		c-1.871,1.319-5.615,3.632-8.805,3.632c-4.294,0-7.044-3.963-7.044-8.034c0-1.319,0.22-2.643,0.66-3.964
		c0.771,0.772,2.421,1.321,4.732,1.321c6.822,0,12.548-5.392,12.548-11.556c0-2.833-2.232-5.758-6.272-6.212
		c1.952,0.063,3.657,0.183,5.171,0.379C165.286,39.425,167.708,40.557,168.882,41.063L168.882,41.063z M151.941,38.583
		c-7.376,0.47-14.17,9.808-14.17,19.461c0,1.162,0.169,2.513,0.549,3.876c-2.672,3.705-5.649,5.26-7.592,5.26
		c-1.21,0-1.761-0.66-1.761-2.093c0-5.282,6.054-17.718,10.236-25.973c3.852-0.331,7.154-0.55,10.125-0.55
		C150.242,38.564,151.111,38.57,151.941,38.583L151.941,38.583z M145.807,48.579c2.09-2.642,4.182-3.632,5.613-3.632
		c0.989,0,1.541,0.44,1.541,1.431c0,2.42-4.073,7.153-8.475,7.153c-0.771,0-1.211,0-1.432-0.11
		C143.825,51.659,144.816,50.01,145.807,48.579L145.807,48.579L145.807,48.579z M200.507,62.775
		c-1.762,2.203-3.964,3.633-6.493,3.633c-4.844,0-5.502-4.072-5.502-7.154c0-6.492,6.271-13.537,11.114-13.537
		c1.761,0,3.191,1.101,4.513,2.532C202.487,52.102,200.507,57.825,200.507,62.775L200.507,62.775L200.507,62.775z M220.647,64.869
		c0-1.763,4.291-3.305,7.814-3.305c-1.212,2.093-4.844,4.183-6.715,4.183C220.977,65.747,220.647,65.419,220.647,64.869z"/>
	
		<path fill-rule="evenodd" clip-rule="evenodd" fill="#414042" stroke="#414042" stroke-width="0.216" stroke-miterlimit="2.6131" d="
		M104.9,80.688h0.051v12.204h1.341V78.466h-2.038l-2.886,12.716h-0.052l-2.862-12.716h-2.01v14.427h1.34V80.795h0.052l2.758,12.098
		h1.521L104.9,80.688L104.9,80.688z M129.532,79.578v-1.112h-5.568v14.427h5.775v-1.114h-4.434v-5.535h3.12v-1.131h-3.12v-5.534
		H129.532L129.532,79.578z M152.025,89.899c0,1.047-1.004,1.879-2.269,1.879h-1.752v-12.2h1.752c1.265,0,2.269,0.833,2.269,1.881
		V89.899L152.025,89.899z M153.367,81.459c0-1.646-1.626-2.993-3.61-2.993h-3.093v14.427h3.093c1.984,0,3.61-1.348,3.61-2.993
		V81.459L153.367,81.459z M172.197,92.893V78.466h-1.338v14.427H172.197L172.197,92.893z M193.843,78.466h-2.269l-2.654,14.427
		h1.341l0.668-3.697h3.533l0.693,3.697h1.344L193.843,78.466L193.843,78.466z M192.682,79.705h0.055l1.519,8.378h-3.118
		L192.682,79.705z"/>
</g>
</svg>
